<mxfile host="app.diagrams.net" agent="Mozilla/5.0 (Windows NT 10.0; Win64; x64) AppleWebKit/537.36 (KHTML, like Gecko) Chrome/130.0.0.0 Safari/537.36" version="24.8.4">
  <diagram name="Page-1" id="z9WTGq3FkKYG-3R1XLsy">
    <mxGraphModel dx="3790" dy="2827" grid="1" gridSize="10" guides="1" tooltips="1" connect="1" arrows="1" fold="1" page="1" pageScale="1" pageWidth="850" pageHeight="1100" math="0" shadow="0">
      <root>
        <mxCell id="0" />
        <mxCell id="1" parent="0" />
        <mxCell id="yli67dYYS5VjGtC2drMS-50" value="&lt;span style=&quot;font-weight: normal;&quot;&gt;Ejercicio 3&lt;/span&gt;&lt;div&gt;&lt;span style=&quot;font-weight: normal;&quot;&gt;&lt;br&gt; Agencia (RAZON_SOCIAL, dirección, telef, e-mail)&lt;br&gt; Ciudad (CODIGOPOSTAL, nombreCiudad, añoCreación)&lt;br&gt; Cliente (DNI, nombre, apellido, teléfono, dirección)&lt;br&gt; Viaje (FECHA, HORA, DNI, cpOrigen (Fk), cpDestino (Fk), razon_social(Fk), descripcion)&amp;nbsp;&lt;/span&gt;&lt;div&gt;&lt;span style=&quot;font-weight: normal;&quot;&gt;&lt;font color=&quot;#4d4d4d&quot;&gt;/&lt;span style=&quot;background-color: initial;&quot;&gt;/cpOrigen y cpDestino corresponden a la ciudades origen y destino del viaje&lt;/span&gt;&lt;/font&gt;&lt;/span&gt;&lt;/div&gt;&lt;/div&gt;" style="text;whiteSpace=wrap;html=1;fontStyle=1;fillColor=#f5f5f5;strokeColor=#666666;fontColor=#333333;align=left;fontFamily=Comic Sans MS;" vertex="1" parent="1">
          <mxGeometry x="2370" y="740" width="1200" height="130" as="geometry" />
        </mxCell>
        <mxCell id="yli67dYYS5VjGtC2drMS-51" value="&lt;b&gt;1. Eliminar el cliente con DNI:25326992.&amp;nbsp;&amp;nbsp;&lt;/b&gt;" style="text;whiteSpace=wrap;html=1;fillColor=#f5f5f5;fontColor=#333333;strokeColor=#666666;" vertex="1" parent="1">
          <mxGeometry x="2370" y="900" width="1200" height="40" as="geometry" />
        </mxCell>
        <mxCell id="yli67dYYS5VjGtC2drMS-52" value="&lt;div&gt;&lt;span style=&quot;background-color: initial; font-size: 18px;&quot;&gt;Viaje&amp;nbsp;&lt;/span&gt;&lt;span style=&quot;background-color: initial; font-size: 20px;&quot;&gt;&amp;lt;&lt;/span&gt;&lt;font style=&quot;background-color: initial; font-size: 16px;&quot;&gt;==&amp;nbsp;&lt;/font&gt;&lt;span style=&quot;background-color: initial; font-size: 18px;&quot;&gt;Viaje - (&lt;/span&gt;&lt;font style=&quot;background-color: initial; font-size: 24px;&quot;&gt;σ&lt;/font&gt;&lt;font style=&quot;background-color: initial; font-size: 18px;&quot;&gt;&amp;nbsp;&lt;/font&gt;&lt;span style=&quot;background-color: initial;&quot;&gt;dni = 25326992&amp;nbsp;&lt;/span&gt;&lt;span style=&quot;background-color: initial; font-size: 18px;&quot;&gt;(&lt;/span&gt;&lt;span style=&quot;background-color: initial; font-size: 18px;&quot;&gt;Viaje)&lt;/span&gt;&lt;span style=&quot;background-color: initial; font-size: 18px;&quot;&gt;)&lt;/span&gt;&lt;/div&gt;&lt;div&gt;&lt;span style=&quot;background-color: initial; font-size: 18px;&quot;&gt;Cliente&amp;nbsp;&lt;/span&gt;&lt;span style=&quot;background-color: initial; font-size: 20px;&quot;&gt;&amp;lt;&lt;/span&gt;&lt;font style=&quot;background-color: initial; font-size: 16px;&quot;&gt;==&amp;nbsp;&lt;/font&gt;&lt;span style=&quot;background-color: initial; font-size: 18px;&quot;&gt;Cliente - (&lt;/span&gt;&lt;font style=&quot;background-color: initial; font-size: 24px;&quot;&gt;σ&lt;/font&gt;&lt;font style=&quot;background-color: initial; font-size: 18px;&quot;&gt;&amp;nbsp;&lt;/font&gt;&lt;span style=&quot;background-color: initial;&quot;&gt;dni = 25326992&lt;/span&gt;&lt;span style=&quot;background-color: initial;&quot;&gt;&amp;nbsp;&lt;/span&gt;&lt;font style=&quot;background-color: initial; font-size: 18px;&quot;&gt;(Cliente&lt;/font&gt;&lt;span style=&quot;background-color: initial; font-size: 18px;&quot;&gt;)&lt;/span&gt;&lt;span style=&quot;background-color: initial; font-size: 18px;&quot;&gt;)&lt;/span&gt;&lt;/div&gt;" style="text;whiteSpace=wrap;html=1;verticalAlign=middle;fontFamily=Comic Sans MS;" vertex="1" parent="1">
          <mxGeometry x="2370" y="940" width="1200" height="80" as="geometry" />
        </mxCell>
        <mxCell id="yli67dYYS5VjGtC2drMS-53" value="&lt;b&gt;2. Listar datos personales de clientes que solo realizaron viajes locales. Se consideran viajes locales aquellos que tienen la misma ciudad como origen y destino.&lt;/b&gt;" style="text;whiteSpace=wrap;html=1;fillColor=#f5f5f5;fontColor=#333333;strokeColor=#666666;" vertex="1" parent="1">
          <mxGeometry x="2370" y="1060" width="1200" height="40" as="geometry" />
        </mxCell>
        <mxCell id="yli67dYYS5VjGtC2drMS-54" value="&lt;div&gt;&lt;font face=&quot;Comic Sans MS&quot;&gt;&lt;font style=&quot;background-color: initial; font-size: 24px;&quot;&gt;π&lt;/font&gt;&lt;font style=&quot;background-color: initial; font-size: 18px;&quot;&gt;&amp;nbsp;&lt;/font&gt;&lt;span style=&quot;background-color: initial; color: rgb(51, 51, 51);&quot;&gt;DNI, nombre, apellido, teléfono, dirección&lt;b&gt;&amp;nbsp;&lt;/b&gt;&lt;/span&gt;&lt;font style=&quot;background-color: initial; font-size: 18px;&quot;&gt;(&lt;font style=&quot;font-size: 24px;&quot;&gt;σ&lt;/font&gt;&lt;span style=&quot;font-size: 12px;&quot;&gt;&amp;nbsp;&lt;/span&gt;&lt;span style=&quot;color: rgb(51, 51, 51); font-size: 12px;&quot;&gt;cpOrigen = cpDestino&lt;/span&gt;&lt;span style=&quot;font-size: 12px;&quot;&gt;&amp;nbsp;&lt;/span&gt;( Cliente&amp;nbsp;&lt;/font&gt;&lt;span style=&quot;background-color: initial; font-size: 18px;&quot;&gt;|x| Viaje&amp;nbsp;&lt;/span&gt;&lt;span style=&quot;background-color: initial; font-size: 18px;&quot;&gt;)&lt;/span&gt;&lt;/font&gt;&lt;span style=&quot;background-color: initial; font-size: 18px;&quot;&gt;)&lt;/span&gt;&lt;br&gt;&lt;/div&gt;" style="text;whiteSpace=wrap;html=1;verticalAlign=middle;fontFamily=Comic Sans MS;" vertex="1" parent="1">
          <mxGeometry x="2370" y="1100" width="1200" height="40" as="geometry" />
        </mxCell>
        <mxCell id="yli67dYYS5VjGtC2drMS-55" value="&lt;b&gt;3. Listar información de agencias que no tengan viajes para el cliente DNI:22222222 durante el primer semestre de 2020.&amp;nbsp;&lt;/b&gt;" style="text;whiteSpace=wrap;html=1;fillColor=#f5f5f5;fontColor=#333333;strokeColor=#666666;" vertex="1" parent="1">
          <mxGeometry x="2370" y="1180" width="1200" height="40" as="geometry" />
        </mxCell>
        <mxCell id="yli67dYYS5VjGtC2drMS-56" value="&lt;div&gt;&lt;font style=&quot;background-color: initial;&quot;&gt;&lt;font style=&quot;font-size: 20px; background-color: initial;&quot;&gt;&lt;font color=&quot;#ff99cc&quot; style=&quot;background-color: initial;&quot;&gt;&lt;span style=&quot;font-size: 18px; background-color: initial;&quot;&gt;solucion 1:&lt;/span&gt;&lt;/font&gt;&lt;/font&gt;&lt;/font&gt;&lt;/div&gt;&lt;div&gt;&lt;font style=&quot;background-color: initial;&quot;&gt;&lt;font style=&quot;font-size: 20px; background-color: initial;&quot;&gt;&lt;font style=&quot;background-color: initial;&quot;&gt;&lt;span style=&quot;font-size: 18px; background-color: initial;&quot;&gt;viaje_a_excluir&amp;nbsp;&lt;/span&gt;&lt;/font&gt;&lt;/font&gt;&lt;/font&gt;&lt;font style=&quot;background-color: initial; font-size: 24px;&quot;&gt;&lt;font style=&quot;background-color: initial; font-size: 20px;&quot;&gt;&amp;lt;&lt;font style=&quot;font-size: 16px;&quot;&gt;==&lt;/font&gt;&lt;/font&gt;&lt;span style=&quot;background-color: initial; font-size: 18px;&quot;&gt;&amp;nbsp;&lt;/span&gt;σ&lt;/font&gt;&lt;span style=&quot;background-color: initial;&quot;&gt;&amp;nbsp;&lt;/span&gt;&lt;span style=&quot;background-color: initial;&quot;&gt;&lt;font color=&quot;#333333&quot;&gt;(&lt;/font&gt;&lt;/span&gt;&lt;span style=&quot;background-color: initial; color: rgb(51, 51, 51);&quot;&gt;DNI = 22222222&lt;/span&gt;&lt;span style=&quot;background-color: initial;&quot;&gt;&lt;font color=&quot;#333333&quot;&gt;) and&amp;nbsp;&lt;/font&gt;&lt;/span&gt;&lt;span style=&quot;background-color: initial;&quot;&gt;&lt;font color=&quot;#333333&quot;&gt;(&lt;/font&gt;&lt;/span&gt;&lt;span style=&quot;background-color: initial; color: rgb(51, 51, 51);&quot;&gt;fecha &amp;gt;= 01/01/2020) and (&lt;/span&gt;&lt;span style=&quot;background-color: initial;&quot;&gt;&lt;font color=&quot;#333333&quot;&gt;fecha &amp;lt;= 30/06/2020)&lt;/font&gt;&lt;/span&gt;&lt;span style=&quot;background-color: initial;&quot;&gt;&lt;font color=&quot;#333333&quot;&gt;&lt;b&gt;&amp;nbsp;&lt;/b&gt;&lt;/font&gt;&lt;/span&gt;&lt;span style=&quot;background-color: initial; font-size: 18px;&quot;&gt;(&lt;/span&gt;&lt;span style=&quot;background-color: initial; font-size: 18px;&quot;&gt;Viaje)&lt;/span&gt;&lt;/div&gt;&lt;div&gt;&lt;font style=&quot;background-color: initial; font-size: 18px;&quot;&gt;&lt;font style=&quot;background-color: initial; font-size: 12px;&quot;&gt;&lt;font style=&quot;font-size: 20px; background-color: initial;&quot;&gt;&lt;font style=&quot;background-color: initial;&quot;&gt;&lt;span style=&quot;font-size: 18px; background-color: initial;&quot;&gt;agencia_a_excluir&amp;nbsp;&lt;/span&gt;&lt;/font&gt;&lt;/font&gt;&lt;/font&gt;&lt;font style=&quot;background-color: initial; font-size: 24px;&quot;&gt;&lt;font style=&quot;background-color: initial; font-size: 20px;&quot;&gt;&amp;lt;&lt;font style=&quot;font-size: 16px;&quot;&gt;==&lt;/font&gt;&lt;/font&gt;&lt;span style=&quot;background-color: initial; font-size: 18px;&quot;&gt;&amp;nbsp;&lt;/span&gt;&lt;/font&gt;&lt;/font&gt;&lt;span style=&quot;font-size: 24px; background-color: initial;&quot;&gt;π&amp;nbsp;&lt;/span&gt;&lt;span style=&quot;background-color: initial; color: rgb(51, 51, 51);&quot;&gt;RAZON_SOCIAL, dirección, telef, e-mail&amp;nbsp;&lt;/span&gt;&lt;font style=&quot;background-color: initial; font-size: 18px;&quot;&gt;( Agencia&amp;nbsp;&lt;/font&gt;&lt;span style=&quot;background-color: initial; font-size: 18px;&quot;&gt;|x|&amp;nbsp;&lt;/span&gt;&lt;span style=&quot;font-size: 18px;&quot;&gt;viaje_a_excluir&amp;nbsp;&lt;/span&gt;&lt;span style=&quot;background-color: initial; font-size: 18px;&quot;&gt;)&lt;/span&gt;&lt;/div&gt;&lt;div&gt;&lt;font face=&quot;Comic Sans MS&quot;&gt;&lt;font style=&quot;background-color: initial;&quot;&gt;&lt;span style=&quot;font-size: 24px;&quot;&gt;π&lt;/span&gt;&lt;/font&gt;&lt;font style=&quot;background-color: initial; font-size: 18px;&quot;&gt;&amp;nbsp;&lt;/font&gt;&lt;span style=&quot;background-color: initial; color: rgb(51, 51, 51);&quot;&gt;RAZON_SOCIAL, dirección, telef, e-mail&lt;/span&gt;&lt;span style=&quot;background-color: initial; color: rgb(51, 51, 51); font-weight: 700;&quot;&gt;&amp;nbsp;&lt;/span&gt;&lt;font style=&quot;background-color: initial; font-size: 16px;&quot;&gt;(&amp;nbsp;&lt;span style=&quot;font-size: 18px;&quot;&gt;Agencia&amp;nbsp;&lt;/span&gt;-&amp;nbsp;&lt;/font&gt;&lt;/font&gt;&lt;span style=&quot;font-size: 18px;&quot;&gt;agencia_a_excluir&amp;nbsp;&lt;/span&gt;&lt;font face=&quot;Comic Sans MS&quot;&gt;&lt;font style=&quot;background-color: initial; font-size: 18px;&quot;&gt;)&lt;/font&gt;&lt;/font&gt;&lt;/div&gt;" style="text;whiteSpace=wrap;html=1;verticalAlign=middle;fontFamily=Comic Sans MS;" vertex="1" parent="1">
          <mxGeometry x="2370" y="1220" width="1200" height="120" as="geometry" />
        </mxCell>
        <mxCell id="yli67dYYS5VjGtC2drMS-57" value="&lt;div&gt;&lt;div&gt;&lt;font style=&quot;background-color: initial;&quot;&gt;&lt;font style=&quot;font-size: 20px; background-color: initial;&quot;&gt;&lt;font style=&quot;background-color: initial;&quot; color=&quot;#ff99cc&quot;&gt;&lt;span style=&quot;font-size: 18px; background-color: initial;&quot;&gt;solucion 2:&lt;/span&gt;&lt;/font&gt;&lt;/font&gt;&lt;/font&gt;&lt;/div&gt;&lt;/div&gt;&lt;div&gt;&lt;font face=&quot;Comic Sans MS&quot;&gt;&lt;font style=&quot;background-color: initial; font-size: 24px;&quot;&gt;&lt;font style=&quot;background-color: initial; font-size: 18px;&quot;&gt;anteriores&amp;nbsp;&lt;/font&gt;&lt;font style=&quot;background-color: initial; font-size: 20px;&quot;&gt;&amp;lt;&lt;font style=&quot;font-size: 16px;&quot;&gt;==&lt;/font&gt;&lt;/font&gt;&lt;span style=&quot;background-color: initial; font-size: 18px;&quot;&gt;&amp;nbsp;&lt;/span&gt;&lt;/font&gt;&lt;span style=&quot;background-color: initial; font-size: 18px;&quot;&gt;(&lt;/span&gt;&lt;font style=&quot;background-color: initial; font-size: 24px;&quot;&gt;σ&lt;/font&gt;&lt;span style=&quot;background-color: initial;&quot;&gt;&amp;nbsp;(&lt;font color=&quot;#333333&quot;&gt;DNI = 22222222) and (fecha&amp;nbsp;&lt;/font&gt;&lt;/span&gt;&lt;span style=&quot;background-color: initial; color: rgb(51, 51, 51);&quot;&gt;&amp;lt; 01/01/2020&lt;/span&gt;&lt;span style=&quot;background-color: initial;&quot;&gt;&lt;font color=&quot;#333333&quot;&gt;&amp;nbsp;)&amp;nbsp;&lt;/font&gt;&lt;/span&gt;&lt;font style=&quot;background-color: initial; font-size: 18px;&quot;&gt;( Agencia&amp;nbsp;&lt;/font&gt;&lt;span style=&quot;background-color: initial; font-size: 18px;&quot;&gt;|x| Viaje ))&lt;/span&gt;&lt;/font&gt;&lt;/div&gt;&lt;div&gt;&lt;font face=&quot;Comic Sans MS&quot;&gt;&lt;font style=&quot;background-color: initial; font-size: 18px;&quot;&gt;posteriores&amp;nbsp;&lt;/font&gt;&lt;font style=&quot;background-color: initial; font-size: 20px;&quot;&gt;&amp;lt;&lt;font style=&quot;font-size: 16px;&quot;&gt;==&lt;/font&gt;&lt;/font&gt;&lt;span style=&quot;background-color: initial; font-size: 18px;&quot;&gt;&amp;nbsp;&lt;/span&gt;&lt;span style=&quot;font-size: 18px; background-color: initial;&quot;&gt;(&lt;/span&gt;&lt;font style=&quot;background-color: initial; font-size: 24px;&quot;&gt;σ&lt;/font&gt;&lt;span style=&quot;background-color: initial;&quot;&gt;&amp;nbsp;(&lt;font color=&quot;#333333&quot;&gt;DNI = 22222222) and (fecha&amp;nbsp;&lt;/font&gt;&lt;/span&gt;&lt;span style=&quot;color: rgb(51, 51, 51); background-color: initial;&quot;&gt;&amp;gt; 30/06/2020&lt;/span&gt;&lt;span style=&quot;background-color: initial;&quot;&gt;&lt;font color=&quot;#333333&quot;&gt;&amp;nbsp;)&amp;nbsp;&lt;/font&gt;&lt;/span&gt;&lt;font style=&quot;background-color: initial; font-size: 18px;&quot;&gt;( Agencia&amp;nbsp;&lt;/font&gt;&lt;span style=&quot;background-color: initial; font-size: 18px;&quot;&gt;|x| Viaje ))&lt;/span&gt;&lt;/font&gt;&lt;/div&gt;&lt;div&gt;&lt;font face=&quot;Comic Sans MS&quot;&gt;&lt;font style=&quot;background-color: initial;&quot;&gt;&lt;span style=&quot;font-size: 24px;&quot;&gt;π&lt;/span&gt;&lt;/font&gt;&lt;font style=&quot;background-color: initial; font-size: 18px;&quot;&gt;&amp;nbsp;&lt;/font&gt;&lt;span style=&quot;background-color: initial; color: rgb(51, 51, 51);&quot;&gt;RAZON_SOCIAL, dirección, telef, e-mail&lt;/span&gt;&lt;span style=&quot;background-color: initial; color: rgb(51, 51, 51); font-weight: 700;&quot;&gt;&amp;nbsp;&lt;/span&gt;&lt;font style=&quot;background-color: initial; font-size: 16px;&quot;&gt;(&amp;nbsp;&lt;span style=&quot;font-size: 18px;&quot;&gt;anteriores&amp;nbsp;&lt;/span&gt;U&amp;nbsp;&lt;/font&gt;&lt;font style=&quot;background-color: initial; font-size: 18px;&quot;&gt;posteriores )&lt;/font&gt;&lt;/font&gt;&lt;span style=&quot;background-color: initial; font-size: 18px;&quot;&gt;&lt;br&gt;&lt;/span&gt;&lt;/div&gt;" style="text;whiteSpace=wrap;html=1;verticalAlign=middle;fontFamily=Comic Sans MS;" vertex="1" parent="1">
          <mxGeometry x="2370" y="1360" width="1200" height="120" as="geometry" />
        </mxCell>
        <mxCell id="yli67dYYS5VjGtC2drMS-58" value="&lt;b&gt;4. Listar información de agencias que realizaron viajes durante 2019 y no realizaron viajes durante 2020. &lt;br&gt;&lt;/b&gt;" style="text;whiteSpace=wrap;html=1;fillColor=#f5f5f5;fontColor=#333333;strokeColor=#666666;" vertex="1" parent="1">
          <mxGeometry x="2370" y="1517.5" width="1200" height="40" as="geometry" />
        </mxCell>
        <mxCell id="yli67dYYS5VjGtC2drMS-59" value="&lt;div&gt;&lt;div&gt;&lt;font face=&quot;Comic Sans MS&quot;&gt;&lt;font style=&quot;background-color: initial; font-size: 18px;&quot;&gt;agencia_y_viaje_2019&amp;nbsp;&lt;/font&gt;&lt;font style=&quot;background-color: initial; font-size: 20px;&quot;&gt;&amp;lt;&lt;font style=&quot;font-size: 16px;&quot;&gt;==&lt;/font&gt;&lt;/font&gt;&lt;span style=&quot;background-color: initial; font-size: 18px;&quot;&gt;&amp;nbsp;&lt;/span&gt;&lt;font style=&quot;background-color: initial; font-size: 24px;&quot;&gt;σ&lt;/font&gt;&lt;span style=&quot;background-color: initial;&quot;&gt;&amp;nbsp;(&lt;/span&gt;&lt;/font&gt;&lt;span style=&quot;background-color: initial;&quot;&gt;f&lt;font color=&quot;#333333&quot;&gt;echa &amp;gt;&lt;/font&gt;&lt;/span&gt;&lt;span style=&quot;background-color: initial; color: rgb(51, 51, 51);&quot;&gt;= 01/01/2019&lt;/span&gt;&lt;font face=&quot;Comic Sans MS&quot;&gt;&lt;span style=&quot;background-color: initial;&quot;&gt;&lt;font color=&quot;#333333&quot;&gt;) and (fecha&amp;nbsp;&lt;/font&gt;&lt;/span&gt;&lt;span style=&quot;color: rgb(51, 51, 51); background-color: initial;&quot;&gt;&amp;gt;=&amp;nbsp;&lt;/span&gt;&lt;/font&gt;&lt;span style=&quot;color: rgb(51, 51, 51);&quot;&gt;31/12&lt;/span&gt;&lt;font face=&quot;Comic Sans MS&quot;&gt;&lt;span style=&quot;color: rgb(51, 51, 51); background-color: initial;&quot;&gt;/2019&lt;/span&gt;&lt;span style=&quot;background-color: initial;&quot;&gt;&lt;font color=&quot;#333333&quot;&gt;&amp;nbsp;)&amp;nbsp;&lt;/font&gt;&lt;/span&gt;&lt;font style=&quot;background-color: initial; font-size: 18px;&quot;&gt;( Agencia&amp;nbsp;&lt;/font&gt;&lt;span style=&quot;background-color: initial; font-size: 18px;&quot;&gt;|x| Viaje )&lt;/span&gt;&lt;/font&gt;&lt;/div&gt;&lt;/div&gt;&lt;div&gt;&lt;span style=&quot;font-size: 18px; background-color: initial;&quot;&gt;agencia_y_viaje_2020&amp;nbsp;&lt;/span&gt;&lt;font face=&quot;Comic Sans MS&quot;&gt;&lt;font style=&quot;background-color: initial; font-size: 24px;&quot;&gt;&lt;font style=&quot;background-color: initial; font-size: 20px;&quot;&gt;&amp;lt;&lt;font style=&quot;font-size: 16px;&quot;&gt;==&lt;/font&gt;&lt;/font&gt;&lt;span style=&quot;background-color: initial; font-size: 18px;&quot;&gt;&amp;nbsp;&lt;/span&gt;&lt;/font&gt;&lt;font style=&quot;background-color: initial; font-size: 24px;&quot;&gt;σ&lt;/font&gt;&lt;span style=&quot;background-color: initial;&quot;&gt;&amp;nbsp;(f&lt;font color=&quot;#333333&quot;&gt;echa &amp;gt;&lt;/font&gt;&lt;/span&gt;&lt;span style=&quot;background-color: initial; color: rgb(51, 51, 51);&quot;&gt;= 01/01/2020&lt;/span&gt;&lt;span style=&quot;background-color: initial;&quot;&gt;&lt;font color=&quot;#333333&quot;&gt;) and&amp;nbsp;&lt;/font&gt;&lt;/span&gt;&lt;span style=&quot;background-color: initial;&quot;&gt;&lt;font color=&quot;#333333&quot;&gt;(fecha &amp;lt;&lt;/font&gt;&lt;/span&gt;&lt;span style=&quot;background-color: initial; color: rgb(51, 51, 51);&quot;&gt;= 31/12/2020&lt;/span&gt;&lt;span style=&quot;background-color: initial;&quot;&gt;&lt;font color=&quot;#333333&quot;&gt;)&amp;nbsp;&lt;/font&gt;&lt;/span&gt;&lt;font style=&quot;background-color: initial; font-size: 18px;&quot;&gt;( Agencia&amp;nbsp;&lt;/font&gt;&lt;span style=&quot;background-color: initial; font-size: 18px;&quot;&gt;|x| Viaje )&lt;/span&gt;&lt;/font&gt;&lt;/div&gt;&lt;div&gt;&lt;font style=&quot;background-color: initial;&quot; face=&quot;Comic Sans MS&quot;&gt;&lt;font style=&quot;background-color: initial;&quot;&gt;&lt;span style=&quot;font-size: 24px;&quot;&gt;π&lt;/span&gt;&lt;/font&gt;&lt;font style=&quot;background-color: initial; font-size: 18px;&quot;&gt;&amp;nbsp;&lt;/font&gt;&lt;span style=&quot;color: rgb(51, 51, 51);&quot;&gt;RAZON_SOCIAL, dirección, telef, e-mail&lt;/span&gt;&lt;span style=&quot;background-color: initial; color: rgb(51, 51, 51); font-weight: 700;&quot;&gt;&amp;nbsp;&lt;/span&gt;&lt;font style=&quot;background-color: initial; font-size: 16px;&quot;&gt;(&amp;nbsp;&lt;/font&gt;&lt;/font&gt;&lt;span style=&quot;font-size: 18px;&quot;&gt;agencia_y_viaje_2019&lt;/span&gt;&lt;span style=&quot;font-size: 18px;&quot;&gt;&amp;nbsp;&lt;/span&gt;&lt;span style=&quot;background-color: initial; font-size: 18px;&quot;&gt;-&amp;nbsp;&lt;/span&gt;&lt;span style=&quot;font-size: 18px;&quot;&gt;agencia_y_viaje_2020&lt;/span&gt;&lt;span style=&quot;font-size: 18px;&quot;&gt;&amp;nbsp;&lt;/span&gt;&lt;span style=&quot;background-color: initial; font-size: 18px;&quot;&gt;)&lt;/span&gt;&lt;br&gt;&lt;/div&gt;" style="text;whiteSpace=wrap;html=1;verticalAlign=middle;fontFamily=Comic Sans MS;" vertex="1" parent="1">
          <mxGeometry x="2370" y="1560" width="1200" height="100" as="geometry" />
        </mxCell>
        <mxCell id="yli67dYYS5VjGtC2drMS-60" value="&lt;b&gt;5. Agregar una agencia de viajes con los datos que desee.&amp;nbsp;&amp;nbsp;&lt;br&gt;&lt;/b&gt;" style="text;whiteSpace=wrap;html=1;fillColor=#f5f5f5;fontColor=#333333;strokeColor=#666666;" vertex="1" parent="1">
          <mxGeometry x="2370" y="1700" width="1200" height="40" as="geometry" />
        </mxCell>
        <mxCell id="yli67dYYS5VjGtC2drMS-61" value="&lt;div style=&quot;font-size: 21px;&quot;&gt;&lt;font&gt;&lt;font style=&quot;background-color: initial; font-size: 18px;&quot;&gt;Agencia&amp;nbsp;&lt;/font&gt;&lt;font style=&quot;background-color: initial; font-size: 20px;&quot;&gt;&amp;lt;&lt;font style=&quot;font-size: 16px;&quot;&gt;==&lt;/font&gt;&lt;/font&gt;&lt;span style=&quot;background-color: initial; font-size: 18px;&quot;&gt;&amp;nbsp;&lt;/span&gt;&lt;/font&gt;&lt;span style=&quot;font-size: 18px; background-color: initial;&quot;&gt;Agencia&lt;/span&gt;&lt;font style=&quot;font-size: 21px;&quot;&gt;&lt;span style=&quot;background-color: initial;&quot;&gt;&amp;nbsp;&lt;/span&gt;&lt;span style=&quot;background-color: initial;&quot;&gt;U&lt;/span&gt;&lt;/font&gt;&lt;span style=&quot;font-size: 16px; background-color: initial;&quot;&gt;&amp;nbsp;&lt;/span&gt;&lt;span style=&quot;font-size: 18px; background-color: initial;&quot;&gt;{(&lt;/span&gt;&lt;font style=&quot;background-color: initial; font-size: 16px;&quot;&gt;1000, &quot;direccion 1&quot; , 2213333333, &quot;mail@mail.com&quot;&lt;/font&gt;&lt;span style=&quot;font-size: 18px; background-color: initial;&quot;&gt;)}&lt;/span&gt;&lt;/div&gt;" style="text;whiteSpace=wrap;html=1;verticalAlign=middle;fontFamily=Comic Sans MS;" vertex="1" parent="1">
          <mxGeometry x="2370" y="1740" width="1200" height="40" as="geometry" />
        </mxCell>
        <mxCell id="yli67dYYS5VjGtC2drMS-62" value="&lt;b&gt;6. Listar datos personales de clientes que viajaron con ciudad destino ‘Lincoln’ pero no realizaron viajes con origen ‘La Plata’.&amp;nbsp;&lt;br&gt;&lt;/b&gt;" style="text;whiteSpace=wrap;html=1;fillColor=#f5f5f5;fontColor=#333333;strokeColor=#666666;" vertex="1" parent="1">
          <mxGeometry x="2370" y="1820" width="1200" height="40" as="geometry" />
        </mxCell>
        <mxCell id="yli67dYYS5VjGtC2drMS-63" value="&lt;div&gt;&lt;font style=&quot;background-color: initial; font-size: 18px;&quot;&gt;&lt;font style=&quot;background-color: initial;&quot;&gt;ciudad_lincoln&amp;nbsp;&lt;/font&gt;&lt;font style=&quot;background-color: initial; font-size: 20px;&quot;&gt;&amp;lt;&lt;font style=&quot;font-size: 16px;&quot;&gt;==&lt;/font&gt;&lt;/font&gt;&lt;span style=&quot;background-color: initial;&quot;&gt;&amp;nbsp;&lt;/span&gt;&lt;/font&gt;&lt;font style=&quot;background-color: initial; font-size: 18px;&quot;&gt;&lt;font style=&quot;font-size: 24px;&quot;&gt;σ&lt;/font&gt;&lt;span style=&quot;font-size: 12px;&quot;&gt;&amp;nbsp;&lt;/span&gt;&lt;span style=&quot;font-size: 12px;&quot;&gt;nombreCiudad = &quot;Lincoln&quot;&amp;nbsp;&lt;/span&gt;( Ciudad&lt;/font&gt;&lt;span style=&quot;background-color: initial; font-size: 18px;&quot;&gt;&amp;nbsp;&lt;/span&gt;&lt;span style=&quot;background-color: initial; font-size: 18px;&quot;&gt;)&lt;/span&gt;&lt;/div&gt;&lt;div&gt;&lt;div&gt;&lt;font style=&quot;background-color: initial; font-size: 18px;&quot;&gt;&lt;font style=&quot;background-color: initial;&quot;&gt;dni_viaje_a_lincoln&amp;nbsp;&lt;/font&gt;&lt;font style=&quot;background-color: initial; font-size: 20px;&quot;&gt;&amp;lt;&lt;font style=&quot;font-size: 16px;&quot;&gt;==&lt;/font&gt;&lt;/font&gt;&lt;span style=&quot;background-color: initial;&quot;&gt;&amp;nbsp;&lt;/span&gt;&lt;/font&gt;&lt;font style=&quot;background-color: initial;&quot; face=&quot;Comic Sans MS&quot;&gt;&lt;font style=&quot;background-color: initial; font-size: 24px;&quot;&gt;π&lt;/font&gt;&lt;font style=&quot;background-color: initial; font-size: 18px;&quot;&gt;&amp;nbsp;&lt;/font&gt;&lt;/font&gt;&lt;span style=&quot;background-color: initial;&quot;&gt;DNI&amp;nbsp;&lt;/span&gt;&lt;span style=&quot;font-size: 18px; background-color: initial;&quot;&gt;(&lt;/span&gt;&lt;font style=&quot;background-color: initial; font-size: 18px;&quot;&gt;&lt;font style=&quot;font-size: 24px;&quot;&gt;σ&lt;/font&gt;&lt;span style=&quot;font-size: 12px;&quot;&gt;&amp;nbsp;&lt;/span&gt;&lt;span style=&quot;font-size: 12px;&quot;&gt;cpDestino =&amp;nbsp;&lt;/span&gt;&lt;span style=&quot;font-size: 12px;&quot;&gt;CODIGOPOSTAL&amp;nbsp;&lt;/span&gt;( viaje x&amp;nbsp;&lt;/font&gt;&lt;span style=&quot;background-color: initial; font-size: 18px;&quot;&gt;ciudad_lincoln&amp;nbsp;&lt;/span&gt;&lt;span style=&quot;background-color: initial; font-size: 18px;&quot;&gt;))&lt;/span&gt;&lt;/div&gt;&lt;div&gt;&lt;font style=&quot;background-color: initial; font-size: 18px;&quot;&gt;cliente_lincoln&amp;nbsp;&lt;/font&gt;&lt;font style=&quot;background-color: initial; font-size: 20px;&quot;&gt;&amp;lt;&lt;font style=&quot;font-size: 16px;&quot;&gt;==&lt;/font&gt;&lt;/font&gt;&lt;span style=&quot;background-color: initial; font-size: 18px;&quot;&gt;&amp;nbsp;&lt;/span&gt;&lt;font face=&quot;Comic Sans MS&quot;&gt;&lt;font style=&quot;background-color: initial; font-size: 24px;&quot;&gt;π&lt;/font&gt;&lt;font style=&quot;background-color: initial; font-size: 18px;&quot;&gt;&amp;nbsp;&lt;/font&gt;&lt;/font&gt;&lt;font face=&quot;Comic Sans MS&quot;&gt;DNI, nombre, apellido, teléfono, dirección&lt;/font&gt;&lt;font face=&quot;Comic Sans MS&quot;&gt;&lt;span style=&quot;background-color: initial; font-weight: 700;&quot;&gt;&amp;nbsp;&lt;/span&gt;&lt;span style=&quot;background-color: initial;&quot;&gt;&amp;nbsp;&lt;/span&gt;&lt;font style=&quot;background-color: initial; font-size: 18px;&quot;&gt;( Cliente&amp;nbsp;&lt;/font&gt;&lt;span style=&quot;background-color: initial; font-size: 18px;&quot;&gt;|x|&amp;nbsp;&lt;/span&gt;&lt;/font&gt;&lt;span style=&quot;font-size: 18px;&quot;&gt;dni_viaje_a_lincoln&amp;nbsp;&lt;/span&gt;&lt;font face=&quot;Comic Sans MS&quot;&gt;&lt;span style=&quot;background-color: initial; font-size: 18px;&quot;&gt;)&lt;/span&gt;&lt;/font&gt;&lt;span style=&quot;background-color: initial; font-size: 18px;&quot;&gt;&lt;/span&gt;&lt;/div&gt;&lt;div&gt;&lt;font face=&quot;Comic Sans MS&quot;&gt;&lt;span style=&quot;background-color: initial; font-size: 18px;&quot;&gt;&lt;br&gt;&lt;/span&gt;&lt;/font&gt;&lt;/div&gt;&lt;div&gt;&lt;font style=&quot;background-color: initial; font-size: 18px;&quot;&gt;&lt;font style=&quot;background-color: initial; font-size: 20px;&quot;&gt;&lt;font style=&quot;background-color: initial; font-size: 18px;&quot;&gt;&lt;font style=&quot;background-color: initial;&quot;&gt;&lt;span style=&quot;background-color: initial;&quot;&gt;ciudad&lt;/span&gt;_la_plata&amp;nbsp;&lt;/font&gt;&lt;font style=&quot;background-color: initial; font-size: 20px;&quot;&gt;&amp;lt;&lt;font style=&quot;font-size: 16px;&quot;&gt;==&lt;/font&gt;&lt;/font&gt;&lt;span style=&quot;background-color: initial;&quot;&gt;&amp;nbsp;&lt;/span&gt;&lt;/font&gt;&lt;font style=&quot;font-size: 12px; background-color: initial;&quot; face=&quot;Comic Sans MS&quot;&gt;&lt;font style=&quot;background-color: initial; font-size: 18px;&quot;&gt;&lt;font style=&quot;font-size: 24px;&quot;&gt;σ&lt;/font&gt;&lt;span style=&quot;font-size: 12px;&quot;&gt;&amp;nbsp;&lt;/span&gt;&lt;/font&gt;&lt;/font&gt;&lt;span style=&quot;font-size: 12px; background-color: initial;&quot;&gt;nombreCiudad&amp;nbsp;&lt;/span&gt;&lt;font style=&quot;font-size: 12px; background-color: initial;&quot; face=&quot;Comic Sans MS&quot;&gt;&lt;font style=&quot;background-color: initial; font-size: 18px;&quot;&gt;&lt;span style=&quot;font-size: 12px;&quot;&gt;&amp;nbsp;= &quot;La Plata&quot;&amp;nbsp;&lt;/span&gt;(&amp;nbsp;&lt;/font&gt;&lt;/font&gt;&lt;span style=&quot;background-color: initial; font-size: 18px;&quot;&gt;Ciudad&amp;nbsp;&lt;/span&gt;&lt;font style=&quot;font-size: 12px; background-color: initial;&quot; face=&quot;Comic Sans MS&quot;&gt;&lt;span style=&quot;background-color: initial; font-size: 18px;&quot;&gt;)&lt;/span&gt;&lt;/font&gt;&lt;/font&gt;&lt;/font&gt;&lt;/div&gt;&lt;div&gt;&lt;font style=&quot;background-color: initial; font-size: 18px;&quot;&gt;&lt;font style=&quot;background-color: initial; font-size: 20px;&quot;&gt;&lt;span style=&quot;font-size: 18px; background-color: initial;&quot;&gt;dni_viaje_a_&lt;/span&gt;&lt;span style=&quot;font-size: 18px;&quot;&gt;la_plata&amp;nbsp;&lt;/span&gt;&lt;span style=&quot;font-size: 18px; background-color: initial;&quot;&gt;&amp;nbsp;&lt;/span&gt;&amp;lt;&lt;font style=&quot;font-size: 16px;&quot;&gt;==&lt;/font&gt;&lt;/font&gt;&lt;span style=&quot;background-color: initial;&quot;&gt;&amp;nbsp;&lt;/span&gt;&lt;/font&gt;&lt;font style=&quot;background-color: initial;&quot; face=&quot;Comic Sans MS&quot;&gt;&lt;font style=&quot;background-color: initial; font-size: 24px;&quot;&gt;π&lt;/font&gt;&lt;font style=&quot;background-color: initial; font-size: 18px;&quot;&gt;&amp;nbsp;&lt;/font&gt;&lt;/font&gt;&lt;span style=&quot;background-color: initial;&quot;&gt;DNI&amp;nbsp;&lt;/span&gt;&lt;span style=&quot;font-size: 18px; background-color: initial;&quot;&gt;(&lt;/span&gt;&lt;font style=&quot;background-color: initial; font-size: 18px;&quot;&gt;&lt;font style=&quot;font-size: 24px;&quot;&gt;σ&lt;/font&gt;&lt;span style=&quot;font-size: 12px;&quot;&gt;&amp;nbsp;&lt;/span&gt;&lt;span style=&quot;font-size: 12px;&quot;&gt;cpDestino =&amp;nbsp;&lt;/span&gt;&lt;span style=&quot;font-size: 12px;&quot;&gt;CODIGOPOSTAL&amp;nbsp;&lt;/span&gt;( viaje x&amp;nbsp;&lt;/font&gt;&lt;span style=&quot;background-color: initial; font-size: 18px;&quot;&gt;ciudad&lt;/span&gt;&lt;span style=&quot;background-color: initial; font-size: 18px;&quot;&gt;_la_plata&amp;nbsp;&lt;/span&gt;&lt;span style=&quot;background-color: initial; font-size: 18px;&quot;&gt;))&lt;/span&gt;&lt;/div&gt;&lt;/div&gt;&lt;div&gt;&lt;font style=&quot;background-color: initial; font-size: 18px;&quot;&gt;cliente_la_plata&amp;nbsp;&lt;/font&gt;&lt;font style=&quot;background-color: initial; font-size: 20px;&quot;&gt;&amp;lt;&lt;font style=&quot;font-size: 16px;&quot;&gt;==&lt;/font&gt;&lt;/font&gt;&lt;span style=&quot;background-color: initial; font-size: 18px;&quot;&gt;&amp;nbsp;&lt;/span&gt;&lt;font face=&quot;Comic Sans MS&quot;&gt;&lt;font style=&quot;background-color: initial; font-size: 24px;&quot;&gt;π&lt;/font&gt;&lt;font style=&quot;background-color: initial; font-size: 18px;&quot;&gt;&amp;nbsp;&lt;/font&gt;&lt;/font&gt;DNI, nombre, apellido, teléfono, dirección&lt;span style=&quot;background-color: initial; font-weight: 700;&quot;&gt;&amp;nbsp;&lt;/span&gt;&lt;span style=&quot;background-color: initial;&quot;&gt;&amp;nbsp;&lt;/span&gt;&lt;font style=&quot;background-color: initial; font-size: 18px;&quot;&gt;(&lt;/font&gt;&lt;font face=&quot;Comic Sans MS&quot;&gt;&lt;font style=&quot;background-color: initial; font-size: 18px;&quot;&gt;&amp;nbsp;Cliente&amp;nbsp;&lt;/font&gt;&lt;span style=&quot;background-color: initial; font-size: 18px;&quot;&gt;|x|&amp;nbsp;&lt;/span&gt;&lt;/font&gt;&lt;span style=&quot;background-color: initial; font-size: 18px;&quot;&gt;dni_viaje_a_&lt;/span&gt;&lt;span style=&quot;font-size: 18px;&quot;&gt;la_plata&amp;nbsp;&lt;/span&gt;&lt;font face=&quot;Comic Sans MS&quot;&gt;&lt;span style=&quot;background-color: initial; font-size: 18px;&quot;&gt;)&lt;/span&gt;&lt;/font&gt;&lt;font face=&quot;Comic Sans MS&quot;&gt;&lt;span style=&quot;background-color: initial; font-size: 18px;&quot;&gt;&lt;br&gt;&lt;/span&gt;&lt;/font&gt;&lt;/div&gt;&lt;div&gt;&lt;font face=&quot;Comic Sans MS&quot;&gt;&lt;font style=&quot;background-color: initial; font-size: 24px;&quot;&gt;&lt;br&gt;&lt;/font&gt;&lt;/font&gt;&lt;/div&gt;&lt;div&gt;&lt;font face=&quot;Comic Sans MS&quot;&gt;&lt;font style=&quot;background-color: initial; font-size: 24px;&quot;&gt;π&lt;/font&gt;&lt;font style=&quot;background-color: initial; font-size: 18px;&quot;&gt;&amp;nbsp;&lt;/font&gt;&lt;/font&gt;DNI, nombre, apellido, teléfono, dirección&amp;nbsp;&lt;font style=&quot;background-color: initial; font-size: 18px;&quot;&gt;(&amp;nbsp;&lt;/font&gt;&lt;span style=&quot;font-size: 18px;&quot;&gt;cliente_lincoln&amp;nbsp;&lt;/span&gt;&lt;span style=&quot;font-size: 18px;&quot;&gt;-&amp;nbsp;&lt;/span&gt;&lt;span style=&quot;font-size: 18px;&quot;&gt;cliente_la_plata &lt;/span&gt;&lt;span style=&quot;background-color: initial; font-size: 18px;&quot;&gt;)&lt;/span&gt;&lt;/div&gt;" style="text;whiteSpace=wrap;html=1;verticalAlign=middle;fontFamily=Comic Sans MS;" vertex="1" parent="1">
          <mxGeometry x="2370" y="1860" width="1200" height="280" as="geometry" />
        </mxCell>
        <mxCell id="yli67dYYS5VjGtC2drMS-64" value="&lt;b&gt;&amp;nbsp;7. Listar nombre, apellido, dirección y teléfono de clientes que viajaron con todas las agencias.&lt;br&gt;&lt;/b&gt;" style="text;whiteSpace=wrap;html=1;fillColor=#f5f5f5;fontColor=#333333;strokeColor=#666666;" vertex="1" parent="1">
          <mxGeometry x="2370" y="2180" width="1200" height="40" as="geometry" />
        </mxCell>
        <mxCell id="yli67dYYS5VjGtC2drMS-65" value="&lt;div&gt;&lt;font style=&quot;background-color: initial;&quot; face=&quot;Comic Sans MS&quot;&gt;&lt;span style=&quot;background-color: initial;&quot;&gt;&amp;nbsp;&lt;/span&gt;&lt;/font&gt;&lt;span style=&quot;background-color: initial; font-size: 24px;&quot;&gt;π&lt;/span&gt;&lt;font style=&quot;background-color: initial;&quot; face=&quot;Comic Sans MS&quot;&gt;&lt;font style=&quot;background-color: initial; font-size: 18px;&quot;&gt;&lt;span style=&quot;font-size: 12px;&quot;&gt;&amp;nbsp;RAZON_SOCIAL,&amp;nbsp;&lt;/span&gt;&lt;/font&gt;&lt;/font&gt;&lt;span style=&quot;background-color: initial; color: rgb(51, 51, 51);&quot;&gt;DNI, nombre, apellido, teléfono, dirección&amp;nbsp;&lt;/span&gt;&lt;font style=&quot;background-color: initial;&quot; face=&quot;Comic Sans MS&quot;&gt;&lt;font style=&quot;background-color: initial; font-size: 18px;&quot;&gt;( Cliente&amp;nbsp;&lt;/font&gt;&lt;span style=&quot;background-color: initial; font-size: 18px;&quot;&gt;|x| Viaje |x| Agencia&amp;nbsp;&lt;/span&gt;&lt;span style=&quot;background-color: initial; font-size: 18px;&quot;&gt;)&amp;nbsp;&lt;/span&gt;&lt;/font&gt;&lt;span style=&quot;background-color: initial; font-size: 18px;&quot;&gt;%&amp;nbsp;&lt;/span&gt;&lt;span style=&quot;background-color: initial; font-size: 24px;&quot;&gt;π&lt;/span&gt;&lt;font style=&quot;background-color: initial;&quot; face=&quot;Comic Sans MS&quot;&gt;&amp;nbsp;RAZON_SOCIAL&amp;nbsp;&lt;/font&gt;&lt;span style=&quot;background-color: initial; font-size: 18px;&quot;&gt;( Agencia&amp;nbsp;&lt;/span&gt;&lt;span style=&quot;background-color: initial; font-size: 18px;&quot;&gt;)&lt;/span&gt;&lt;br&gt;&lt;/div&gt;" style="text;whiteSpace=wrap;html=1;verticalAlign=middle;fontFamily=Comic Sans MS;" vertex="1" parent="1">
          <mxGeometry x="2370" y="2220" width="1200" height="40" as="geometry" />
        </mxCell>
        <mxCell id="yli67dYYS5VjGtC2drMS-66" value="&lt;b&gt;&amp;nbsp;8. Listar código postal, nombre Ciudad y año creación de ciudades que no recibieron viajes durante 2020.&amp;nbsp;&lt;br&gt;&lt;/b&gt;" style="text;whiteSpace=wrap;html=1;fillColor=#f5f5f5;fontColor=#333333;strokeColor=#666666;" vertex="1" parent="1">
          <mxGeometry x="2370" y="2300" width="1200" height="40" as="geometry" />
        </mxCell>
        <mxCell id="yli67dYYS5VjGtC2drMS-67" value="&lt;div&gt;&lt;font style=&quot;background-color: initial; font-size: 18px;&quot;&gt;&lt;font style=&quot;background-color: initial;&quot;&gt;viaje_ciudad&amp;nbsp;&lt;/font&gt;&lt;font style=&quot;background-color: initial; font-size: 20px;&quot;&gt;&amp;lt;&lt;font style=&quot;font-size: 16px;&quot;&gt;==&lt;/font&gt;&lt;/font&gt;&lt;font style=&quot;font-size: 12px; background-color: initial;&quot; face=&quot;Comic Sans MS&quot;&gt;&lt;font style=&quot;background-color: initial; font-size: 18px;&quot;&gt;&amp;nbsp;&lt;/font&gt;&lt;/font&gt;&lt;/font&gt;&lt;span style=&quot;background-color: initial;&quot;&gt;&lt;font color=&quot;#333333&quot;&gt;&amp;nbsp;&lt;/font&gt;&lt;/span&gt;&lt;span style=&quot;background-color: initial; font-size: 24px;&quot;&gt;σ&lt;/span&gt;&lt;span style=&quot;background-color: initial; font-size: 18px;&quot;&gt;&amp;nbsp;&lt;/span&gt;&lt;span style=&quot;background-color: initial; color: rgb(51, 51, 51);&quot;&gt;cpDestino = CODIGOPOSTAL&amp;nbsp;&lt;/span&gt;&lt;span style=&quot;background-color: initial; font-size: 18px;&quot;&gt;(&amp;nbsp;&lt;/span&gt;&lt;span style=&quot;background-color: initial; font-size: 18px;&quot;&gt;Viaje x Ciudad&amp;nbsp;&lt;/span&gt;&lt;span style=&quot;background-color: initial; font-size: 18px;&quot;&gt;)&lt;/span&gt;&lt;/div&gt;&lt;div&gt;&lt;font style=&quot;background-color: initial; font-size: 18px;&quot;&gt;viaje_ciudad_2020&amp;nbsp;&lt;/font&gt;&lt;font style=&quot;background-color: initial; font-size: 20px;&quot;&gt;&amp;lt;&lt;font style=&quot;font-size: 16px;&quot;&gt;==&lt;/font&gt;&lt;/font&gt;&lt;font style=&quot;background-color: initial;&quot; face=&quot;Comic Sans MS&quot;&gt;&lt;font style=&quot;background-color: initial; font-size: 18px;&quot;&gt;&amp;nbsp;&lt;/font&gt;&lt;/font&gt;&lt;span style=&quot;font-size: 24px; background-color: initial;&quot;&gt;σ&amp;nbsp;&lt;/span&gt;&lt;span style=&quot;background-color: initial;&quot;&gt;(f&lt;font color=&quot;#333333&quot;&gt;echa &amp;gt;&lt;/font&gt;&lt;/span&gt;&lt;span style=&quot;background-color: initial; color: rgb(51, 51, 51);&quot;&gt;= 01/01/2020&lt;/span&gt;&lt;span style=&quot;background-color: initial;&quot;&gt;&lt;font color=&quot;#333333&quot;&gt;) and&amp;nbsp;&lt;/font&gt;&lt;/span&gt;&lt;span style=&quot;background-color: initial;&quot;&gt;&lt;font color=&quot;#333333&quot;&gt;(fecha &amp;lt;&lt;/font&gt;&lt;/span&gt;&lt;span style=&quot;background-color: initial; color: rgb(51, 51, 51);&quot;&gt;= 31/12/2020&lt;/span&gt;&lt;span style=&quot;background-color: initial;&quot;&gt;&lt;font color=&quot;#333333&quot;&gt;)&amp;nbsp;&lt;/font&gt;&lt;/span&gt;&lt;span style=&quot;color: rgb(51, 51, 51); background-color: initial;&quot;&gt;&amp;nbsp;&lt;/span&gt;&lt;span style=&quot;font-size: 18px; background-color: initial;&quot;&gt;(&amp;nbsp;&lt;/span&gt;&lt;span style=&quot;font-size: 18px;&quot;&gt;viaje_ciudad&lt;/span&gt;&lt;span style=&quot;background-color: initial; font-size: 18px;&quot;&gt;&amp;nbsp;&lt;/span&gt;&lt;span style=&quot;background-color: initial; font-size: 18px;&quot;&gt;)&lt;/span&gt;&lt;/div&gt;&lt;div&gt;&lt;span style=&quot;background-color: initial; font-size: 24px;&quot;&gt;π&lt;/span&gt;&lt;font style=&quot;background-color: initial;&quot; face=&quot;Comic Sans MS&quot;&gt;&amp;nbsp;&lt;/font&gt;&lt;span style=&quot;color: rgb(51, 51, 51);&quot;&gt;CODIGOPOSTAL, nombreCiudad, añoCreación&lt;/span&gt;&lt;span style=&quot;background-color: initial; color: rgb(51, 51, 51);&quot;&gt;&amp;nbsp;&lt;/span&gt;&lt;span style=&quot;background-color: initial; font-size: 18px;&quot;&gt;( &lt;/span&gt;&lt;span style=&quot;font-size: 18px;&quot;&gt;viaje_ciudad&lt;/span&gt;&lt;span style=&quot;background-color: initial; font-size: 18px;&quot;&gt;&amp;nbsp;&lt;/span&gt;&lt;span style=&quot;background-color: initial; font-size: 18px;&quot;&gt;&amp;nbsp;-&amp;nbsp;&lt;/span&gt;&lt;span style=&quot;font-size: 18px;&quot;&gt;viaje_ciudad_2020&lt;/span&gt;&lt;span style=&quot;font-size: 18px; background-color: initial;&quot;&gt;&amp;nbsp;&lt;/span&gt;&lt;span style=&quot;background-color: initial; font-size: 18px;&quot;&gt;)&lt;/span&gt;&lt;/div&gt;" style="text;whiteSpace=wrap;html=1;verticalAlign=middle;fontFamily=Comic Sans MS;" vertex="1" parent="1">
          <mxGeometry x="2370" y="2340" width="1200" height="100" as="geometry" />
        </mxCell>
        <mxCell id="yli67dYYS5VjGtC2drMS-68" value="&lt;b&gt;&amp;nbsp;9. Reportar información de agencias que realizaron viajes durante 2019 o que tengan dirección igual a ‘General Pinto 1234’.&lt;br&gt;&lt;/b&gt;" style="text;whiteSpace=wrap;html=1;fillColor=#f5f5f5;fontColor=#333333;strokeColor=#666666;" vertex="1" parent="1">
          <mxGeometry x="2370" y="2480" width="1200" height="40" as="geometry" />
        </mxCell>
        <mxCell id="yli67dYYS5VjGtC2drMS-69" value="&lt;div&gt;&lt;span style=&quot;background-color: initial; font-size: 18px; color: rgb(255, 153, 204);&quot;&gt;solucion 1:&lt;/span&gt;&lt;/div&gt;&lt;div&gt;&lt;font style=&quot;background-color: initial; font-size: 18px;&quot;&gt;Agencia2019&amp;nbsp;&lt;/font&gt;&lt;font style=&quot;background-color: initial; font-size: 20px;&quot;&gt;&amp;lt;&lt;font style=&quot;font-size: 16px;&quot;&gt;==&lt;/font&gt;&lt;/font&gt;&lt;font style=&quot;background-color: initial;&quot; face=&quot;Comic Sans MS&quot;&gt;&lt;font style=&quot;background-color: initial; font-size: 18px;&quot;&gt;&amp;nbsp;&lt;/font&gt;&lt;/font&gt;&lt;span style=&quot;background-color: initial; font-size: 24px;&quot;&gt;π&lt;/span&gt;&lt;font style=&quot;background-color: initial;&quot; face=&quot;Comic Sans MS&quot;&gt;&amp;nbsp;&lt;/font&gt;&lt;span style=&quot;background-color: initial; color: rgb(51, 51, 51);&quot;&gt;RAZON_SOCIAL, dirección, telef, e-mail&amp;nbsp;&lt;/span&gt;&lt;span style=&quot;background-color: initial; color: rgb(51, 51, 51);&quot;&gt;&amp;nbsp;&lt;/span&gt;&lt;span style=&quot;background-color: initial; font-size: 18px;&quot;&gt;(&lt;/span&gt;&lt;span style=&quot;background-color: initial; font-size: 24px;&quot;&gt;σ&amp;nbsp;&lt;/span&gt;&lt;span style=&quot;background-color: initial;&quot;&gt;(f&lt;font color=&quot;#333333&quot;&gt;echa &amp;gt;&lt;/font&gt;&lt;/span&gt;&lt;span style=&quot;background-color: initial; color: rgb(51, 51, 51);&quot;&gt;= 01/01/2019&lt;/span&gt;&lt;span style=&quot;background-color: initial;&quot;&gt;&lt;font color=&quot;#333333&quot;&gt;) and&amp;nbsp;&lt;/font&gt;&lt;/span&gt;&lt;span style=&quot;background-color: initial;&quot;&gt;&lt;font color=&quot;#333333&quot;&gt;(fecha &amp;lt;&lt;/font&gt;&lt;/span&gt;&lt;span style=&quot;background-color: initial; color: rgb(51, 51, 51);&quot;&gt;= 31/12/&lt;/span&gt;&lt;span style=&quot;background-color: initial; color: rgb(51, 51, 51);&quot;&gt;2019&lt;/span&gt;&lt;span style=&quot;background-color: initial;&quot;&gt;&lt;font color=&quot;#333333&quot;&gt;)&lt;/font&gt;&lt;/span&gt;&lt;span style=&quot;background-color: initial; color: rgb(51, 51, 51);&quot;&gt;&amp;nbsp;&amp;nbsp;&lt;/span&gt;&lt;span style=&quot;background-color: initial; font-size: 18px;&quot;&gt;(&lt;/span&gt;&lt;span style=&quot;background-color: initial; font-size: 18px;&quot;&gt;Viaje x Agencia&lt;/span&gt;&lt;span style=&quot;background-color: initial; font-size: 18px;&quot;&gt;)&lt;/span&gt;&lt;span style=&quot;background-color: initial; font-size: 18px;&quot;&gt;)&lt;/span&gt;&lt;/div&gt;&lt;div&gt;&lt;font style=&quot;background-color: initial; font-size: 18px;&quot;&gt;AgenciaG&amp;nbsp;&lt;/font&gt;&lt;font style=&quot;background-color: initial; font-size: 20px;&quot;&gt;&amp;lt;&lt;font style=&quot;font-size: 16px;&quot;&gt;==&lt;/font&gt;&lt;/font&gt;&lt;font style=&quot;background-color: initial;&quot; face=&quot;Comic Sans MS&quot;&gt;&lt;font style=&quot;background-color: initial; font-size: 18px;&quot;&gt;&amp;nbsp;&lt;/font&gt;&lt;/font&gt;&lt;span style=&quot;background-color: initial; font-size: 24px;&quot;&gt;σ&amp;nbsp;&lt;/span&gt;&lt;span style=&quot;background-color: initial;&quot;&gt;(direccion = &quot;General Pinto 1234&quot;)&lt;/span&gt;&lt;span style=&quot;background-color: initial; color: rgb(51, 51, 51);&quot;&gt;&amp;nbsp;&amp;nbsp;&lt;/span&gt;&lt;span style=&quot;background-color: initial; font-size: 18px;&quot;&gt;(&lt;/span&gt;&lt;span style=&quot;background-color: initial; font-size: 18px;&quot;&gt;Agencia)&lt;/span&gt;&lt;/div&gt;&lt;div&gt;&lt;span style=&quot;background-color: initial; font-size: 24px;&quot;&gt;π&lt;/span&gt;&lt;font style=&quot;background-color: initial;&quot; face=&quot;Comic Sans MS&quot;&gt;&amp;nbsp;&lt;/font&gt;&lt;span style=&quot;color: rgb(51, 51, 51);&quot;&gt;RAZON_SOCIAL, dirección, telef, e-mail&lt;/span&gt;&lt;span style=&quot;background-color: initial; color: rgb(51, 51, 51);&quot;&gt;&amp;nbsp;&lt;/span&gt;&lt;span style=&quot;background-color: initial; font-size: 18px;&quot;&gt;(&amp;nbsp;&lt;/span&gt;&lt;span style=&quot;font-size: 18px;&quot;&gt;Agencia2019&amp;nbsp;&lt;/span&gt;&lt;span style=&quot;background-color: initial;&quot;&gt;&lt;font style=&quot;font-size: 20px;&quot;&gt;U&lt;/font&gt;&lt;/span&gt;&lt;span style=&quot;background-color: initial; font-size: 18px;&quot;&gt;&amp;nbsp;&lt;/span&gt;&lt;span style=&quot;background-color: initial; font-size: 18px;&quot;&gt;AgenciaG&amp;nbsp;&lt;/span&gt;&lt;span style=&quot;font-size: 18px; background-color: initial;&quot;&gt;)&lt;/span&gt;&lt;/div&gt;" style="text;whiteSpace=wrap;html=1;verticalAlign=middle;fontFamily=Comic Sans MS;" vertex="1" parent="1">
          <mxGeometry x="2370" y="2520" width="1200" height="140" as="geometry" />
        </mxCell>
        <mxCell id="yli67dYYS5VjGtC2drMS-70" value="&lt;div&gt;&lt;span style=&quot;color: rgb(255, 153, 204); font-size: 18px;&quot;&gt;solucion 2:&lt;/span&gt;&lt;span style=&quot;background-color: initial; font-size: 24px;&quot;&gt;&lt;/span&gt;&lt;/div&gt;&lt;div&gt;&lt;span style=&quot;background-color: initial; font-size: 24px;&quot;&gt;π&lt;/span&gt;&lt;font style=&quot;background-color: initial;&quot; face=&quot;Comic Sans MS&quot;&gt;&amp;nbsp;&lt;/font&gt;&lt;span style=&quot;background-color: initial; color: rgb(51, 51, 51);&quot;&gt;RAZON_SOCIAL, dirección, telef, e-mail&amp;nbsp;&lt;/span&gt;&lt;span style=&quot;background-color: initial; color: rgb(51, 51, 51);&quot;&gt;&amp;nbsp;&lt;/span&gt;&lt;span style=&quot;background-color: initial; font-size: 18px;&quot;&gt;(&lt;/span&gt;&lt;span style=&quot;background-color: initial; font-size: 24px;&quot;&gt;σ&amp;nbsp;&lt;/span&gt;&lt;span style=&quot;background-color: initial;&quot;&gt;(f&lt;font color=&quot;#333333&quot;&gt;echa &amp;gt;&lt;/font&gt;&lt;/span&gt;&lt;span style=&quot;background-color: initial; color: rgb(51, 51, 51);&quot;&gt;= 01/01/2019&lt;/span&gt;&lt;span style=&quot;background-color: initial;&quot;&gt;&lt;font color=&quot;#333333&quot;&gt;) and&amp;nbsp;&lt;/font&gt;&lt;/span&gt;&lt;span style=&quot;background-color: initial;&quot;&gt;&lt;font color=&quot;#333333&quot;&gt;(fecha &amp;lt;&lt;/font&gt;&lt;/span&gt;&lt;span style=&quot;background-color: initial; color: rgb(51, 51, 51);&quot;&gt;= 31/12/&lt;/span&gt;&lt;span style=&quot;background-color: initial; color: rgb(51, 51, 51);&quot;&gt;2019&lt;/span&gt;&lt;span style=&quot;background-color: initial;&quot;&gt;&lt;font color=&quot;#333333&quot;&gt;) or&amp;nbsp;&lt;/font&gt;&lt;/span&gt;&lt;span style=&quot;background-color: initial;&quot;&gt;(direccion = &quot;General Pinto 1234&quot;)&lt;/span&gt;&lt;span style=&quot;background-color: initial; color: rgb(51, 51, 51);&quot;&gt;&amp;nbsp;&amp;nbsp;&lt;/span&gt;&lt;span style=&quot;background-color: initial; font-size: 18px;&quot;&gt;(&lt;/span&gt;&lt;span style=&quot;background-color: initial; font-size: 18px;&quot;&gt;Viaje |x| Agencia&lt;/span&gt;&lt;span style=&quot;background-color: initial; font-size: 18px;&quot;&gt;)&lt;/span&gt;&lt;span style=&quot;background-color: initial; font-size: 18px;&quot;&gt;)&lt;/span&gt;&lt;/div&gt;" style="text;whiteSpace=wrap;html=1;verticalAlign=middle;fontFamily=Comic Sans MS;" vertex="1" parent="1">
          <mxGeometry x="2370" y="2660" width="1200" height="80" as="geometry" />
        </mxCell>
        <mxCell id="yli67dYYS5VjGtC2drMS-71" value="&lt;b&gt;10. Actualizar el teléfono del cliente con DNI: 2789655 a: 221-4400345.&amp;nbsp;&amp;nbsp;&lt;br&gt;&lt;/b&gt;" style="text;whiteSpace=wrap;html=1;fillColor=#f5f5f5;fontColor=#333333;strokeColor=#666666;" vertex="1" parent="1">
          <mxGeometry x="2370" y="2780" width="1200" height="40" as="geometry" />
        </mxCell>
        <mxCell id="yli67dYYS5VjGtC2drMS-72" value="" style="rounded=0;whiteSpace=wrap;html=1;fillColor=#FFCCE6;strokeColor=#000000;" vertex="1" parent="1">
          <mxGeometry x="2330" y="740" width="40" height="2160" as="geometry" />
        </mxCell>
        <mxCell id="yli67dYYS5VjGtC2drMS-73" value="" style="rounded=0;whiteSpace=wrap;html=1;fillColor=#FFCCE6;strokeColor=#000000;" vertex="1" parent="1">
          <mxGeometry x="3570" y="740" width="40" height="2160" as="geometry" />
        </mxCell>
      </root>
    </mxGraphModel>
  </diagram>
</mxfile>
